<svg width="24" height="24" viewBox="0 0 24 24" fill="none" xmlns="http://www.w3.org/2000/svg">
<path d="M14.283 3.50131L6.50998 11.4753C6.37346 11.6154 6.29706 11.8032 6.29706 11.9988C6.29706 12.1944 6.37346 12.3822 6.50998 12.5223L14.283 20.4993C14.3466 20.5646 14.4226 20.6165 14.5066 20.652C14.5906 20.6874 14.6808 20.7057 14.772 20.7057C14.8631 20.7057 14.9534 20.6874 15.0374 20.652C15.1214 20.6165 15.1974 20.5646 15.261 20.4993C15.3918 20.3654 15.4651 20.1855 15.4651 19.9983C15.4651 19.8111 15.3918 19.6313 15.261 19.4973L7.95148 11.9988L15.261 4.50181C15.3914 4.36793 15.4643 4.18844 15.4643 4.00156C15.4643 3.81468 15.3914 3.63519 15.261 3.50131C15.1974 3.43599 15.1214 3.38408 15.0374 3.34863C14.9534 3.31318 14.8631 3.29492 14.772 3.29492C14.6808 3.29492 14.5906 3.31318 14.5066 3.34863C14.4226 3.38408 14.3466 3.43599 14.283 3.50131Z" fill="#78777C"/>
</svg>
