<svg width="24" height="25" viewBox="0 0 24 25" fill="none" xmlns="http://www.w3.org/2000/svg">
<path fill-rule="evenodd" clip-rule="evenodd" d="M19.56 12.5C19.56 8.32654 16.1735 4.94 12 4.94C7.82654 4.94 4.44 8.32654 4.44 12.5C4.44 16.6735 7.82654 20.06 12 20.06C16.1735 20.06 19.56 16.6735 19.56 12.5ZM12 3.5C16.9688 3.5 21 7.53125 21 12.5C21 17.4688 16.9688 21.5 12 21.5C7.03125 21.5 3 17.4688 3 12.5C3 7.53125 7.03125 3.5 12 3.5Z" fill="#78777C"/>
<path fill-rule="evenodd" clip-rule="evenodd" d="M8.49091 8.99116C8.77209 8.70998 9.22797 8.70998 9.50915 8.99116L12 11.482L14.4909 8.99116C14.7721 8.70998 15.228 8.70998 15.5091 8.99116C15.7903 9.27233 15.7903 9.72821 15.5091 10.0094L13.0183 12.5003L15.5091 14.9912C15.7903 15.2723 15.7903 15.7282 15.5091 16.0094C15.228 16.2906 14.7721 16.2906 14.4909 16.0094L12 13.5185L9.50915 16.0094C9.22797 16.2906 8.77209 16.2906 8.49091 16.0094C8.20973 15.7282 8.20973 15.2723 8.49091 14.9912L10.9818 12.5003L8.49091 10.0094C8.20973 9.72821 8.20973 9.27233 8.49091 8.99116Z" fill="#78777C"/>
</svg>
