<svg width="18" height="18" viewBox="0 0 18 18" fill="none" xmlns="http://www.w3.org/2000/svg">
<path d="M11.6976 8.99888C11.6976 10.4288 10.4877 11.5881 8.99511 11.5881C7.50255 11.5881 6.29259 10.4288 6.29259 8.99888C6.29259 7.5689 7.50255 6.4097 8.99511 6.4097C10.4877 6.40968 11.6976 7.56891 11.6976 8.99888ZM9 3.60782C7.45462 3.61467 5.85279 3.99089 4.33644 4.71117C3.21057 5.268 2.11335 6.05361 1.16091 7.02329C0.69312 7.51827 0.096465 8.235 0 8.99972C0.0114 9.66213 0.72195 10.4798 1.16091 10.9762C2.05405 11.9078 3.1227 12.6714 4.33644 13.2888C5.75051 13.9751 7.31568 14.3702 9 14.3922C10.5468 14.3852 12.1483 14.0047 13.663 13.2888C14.7889 12.732 15.8866 11.9458 16.8391 10.9762C17.3069 10.4812 17.9035 9.76443 18 8.99972C17.9886 8.3373 17.278 7.51965 16.8391 7.02326C15.9459 6.09167 14.8767 5.32857 13.663 4.71114C12.2497 4.0254 10.6806 3.633 9 3.60782ZM8.99886 4.94654C11.3406 4.94654 13.239 6.76145 13.239 9.0003C13.239 11.2391 11.3406 13.0541 8.99886 13.0541C6.65707 13.0541 4.75873 11.2391 4.75873 9.0003C4.75873 6.76145 6.65707 4.94654 8.99886 4.94654Z" fill="#78777C"/>
</svg>
