<svg width="18" height="18" viewBox="0 0 18 18" fill="none" xmlns="http://www.w3.org/2000/svg">
<path d="M10.0459 4.10274C9.70254 4.0656 9.35365 4.04432 9 4.03902C7.45462 4.04588 5.85265 4.42178 4.33631 5.14206C3.21043 5.69889 2.11371 6.485 1.16126 7.45467C0.69348 7.94967 0.096465 8.6664 0 9.4311C0.0114 10.0935 0.722295 10.9112 1.16126 11.4076C2.0544 12.3392 3.12257 13.1028 4.33631 13.7202C4.37755 13.7402 4.41895 13.76 4.46044 13.7795L3.33436 15.746L4.86444 16.6503L13.1357 2.24982L11.6629 1.3497L10.0459 4.10274ZM13.5384 5.08493L12.4145 7.03278C12.9316 7.70451 13.2385 8.53287 13.2385 9.4311C13.2385 11.67 11.3407 13.4851 8.99889 13.4851C8.89766 13.4851 8.79954 13.4741 8.70006 13.4675L7.95628 14.7551C8.2993 14.7918 8.64614 14.8186 8.99998 14.8232C10.5468 14.8163 12.1479 14.436 13.6626 13.7202C14.7885 13.1633 15.8863 12.3772 16.8387 11.4076C17.3065 10.9126 17.9035 10.1958 18 9.4311C17.9886 8.76869 17.2777 7.95107 16.8387 7.45466C15.9456 6.52307 14.8763 5.75946 13.6626 5.14203C13.6216 5.12217 13.5797 5.10431 13.5384 5.08493ZM8.99891 5.37717C9.10159 5.37717 9.20347 5.38128 9.30432 5.38815L8.4331 6.89657C7.21039 7.14446 6.29296 8.18477 6.29296 9.43002C6.29296 9.74283 6.35058 10.0423 6.45666 10.3199C6.45678 10.3202 6.45654 10.3207 6.45666 10.321L5.58324 11.8338C5.06497 11.1615 4.75926 10.3304 4.75926 9.43109C4.75927 7.19226 6.65712 5.37716 8.99891 5.37717ZM11.5334 8.5577L9.5702 11.9591C10.7863 11.7065 11.6971 10.6709 11.6971 9.43002C11.6971 9.12291 11.6359 8.83094 11.5334 8.5577Z" fill="#78777C"/>
</svg>
