<svg width="18" height="19" viewBox="0 0 18 19" fill="none" xmlns="http://www.w3.org/2000/svg">
<path d="M16.875 16.25C16.875 16.25 18 16.25 18 15.125C18 14 16.875 10.625 12.375 10.625C7.875 10.625 6.75 14 6.75 15.125C6.75 16.25 7.875 16.25 7.875 16.25H16.875ZM7.89975 15.125C7.89144 15.1239 7.88318 15.1224 7.875 15.1205C7.87612 14.8235 8.06287 13.9618 8.73 13.1855C9.351 12.4576 10.4423 11.75 12.375 11.75C14.3066 11.75 15.3979 12.4587 16.02 13.1855C16.6871 13.9618 16.8727 14.8246 16.875 15.1205L16.866 15.1228C16.8608 15.1236 16.8555 15.1244 16.8503 15.125H7.89975ZM12.375 8.375C12.9717 8.375 13.544 8.13795 13.966 7.71599C14.3879 7.29403 14.625 6.72174 14.625 6.125C14.625 5.52826 14.3879 4.95597 13.966 4.53401C13.544 4.11205 12.9717 3.875 12.375 3.875C11.7783 3.875 11.206 4.11205 10.784 4.53401C10.3621 4.95597 10.125 5.52826 10.125 6.125C10.125 6.72174 10.3621 7.29403 10.784 7.71599C11.206 8.13795 11.7783 8.375 12.375 8.375ZM15.75 6.125C15.75 6.56821 15.6627 7.00708 15.4931 7.41656C15.3235 7.82603 15.0749 8.19809 14.7615 8.51149C14.4481 8.82488 14.076 9.07348 13.6666 9.24309C13.2571 9.4127 12.8182 9.5 12.375 9.5C11.9318 9.5 11.4929 9.4127 11.0834 9.24309C10.674 9.07348 10.3019 8.82488 9.98851 8.51149C9.67512 8.19809 9.42652 7.82603 9.25691 7.41656C9.0873 7.00708 9 6.56821 9 6.125C9 5.22989 9.35558 4.37145 9.98851 3.73851C10.6214 3.10558 11.4799 2.75 12.375 2.75C13.2701 2.75 14.1286 3.10558 14.7615 3.73851C15.3944 4.37145 15.75 5.22989 15.75 6.125ZM7.803 10.94C7.35298 10.7983 6.88909 10.7051 6.41925 10.6621C6.15525 10.637 5.89019 10.6246 5.625 10.625C1.125 10.625 0 14 0 15.125C0 15.8754 0.374625 16.25 1.125 16.25H5.868C5.70122 15.8988 5.61805 15.5137 5.625 15.125C5.625 13.9888 6.04913 12.8277 6.85125 11.858C7.12463 11.5272 7.443 11.2179 7.803 10.94ZM5.535 11.75C4.86917 12.7504 4.5095 13.9233 4.5 15.125H1.125C1.125 14.8325 1.3095 13.9663 1.98 13.1855C2.59313 12.47 3.6585 11.7725 5.535 11.7511V11.75ZM1.6875 6.6875C1.6875 5.79239 2.04308 4.93395 2.67601 4.30101C3.30895 3.66808 4.16739 3.3125 5.0625 3.3125C5.95761 3.3125 6.81605 3.66808 7.44899 4.30101C8.08192 4.93395 8.4375 5.79239 8.4375 6.6875C8.4375 7.58261 8.08192 8.44105 7.44899 9.07399C6.81605 9.70692 5.95761 10.0625 5.0625 10.0625C4.16739 10.0625 3.30895 9.70692 2.67601 9.07399C2.04308 8.44105 1.6875 7.58261 1.6875 6.6875ZM5.0625 4.4375C4.46576 4.4375 3.89347 4.67455 3.47151 5.09651C3.04955 5.51847 2.8125 6.09076 2.8125 6.6875C2.8125 7.28424 3.04955 7.85653 3.47151 8.27849C3.89347 8.70045 4.46576 8.9375 5.0625 8.9375C5.65924 8.9375 6.23153 8.70045 6.65349 8.27849C7.07545 7.85653 7.3125 7.28424 7.3125 6.6875C7.3125 6.09076 7.07545 5.51847 6.65349 5.09651C6.23153 4.67455 5.65924 4.4375 5.0625 4.4375Z" fill="white"/>
</svg>
